<svg width="24" height="24" viewBox="0 0 24 24" fill="none" xmlns="http://www.w3.org/2000/svg">
<path d="M14.13 11.34C14.52 9.70003 13.09 8.27003 11.45 8.66003C10.68 8.85003 10.05 9.48003 9.85998 10.25C9.46998 11.89 10.9 13.32 12.54 12.93C13.32 12.74 13.95 12.11 14.13 11.34Z" fill="white"/>
<path d="M6.01996 17.97C5.83996 17.97 5.64996 17.9 5.50996 17.77C3.56996 15.97 2.45996 13.43 2.45996 10.79C2.45996 5.53 6.73996 1.25 12 1.25C17.26 1.25 21.54 5.53 21.54 10.79C21.54 13.45 20.47 15.91 18.53 17.74C18.23 18.02 17.75 18.01 17.47 17.71C17.19 17.41 17.2 16.93 17.5 16.65C19.14 15.11 20.04 13.04 20.04 10.8C20.04 6.37 16.43 2.76 12 2.76C7.56996 2.76 3.95996 6.37 3.95996 10.8C3.95996 13.06 4.86996 15.14 6.52996 16.68C6.82996 16.96 6.84996 17.44 6.56996 17.74C6.41996 17.89 6.21996 17.97 6.01996 17.97Z" fill="white"/>
<path d="M16 15.3001C15.82 15.3001 15.63 15.2301 15.49 15.1001C15.19 14.8201 15.17 14.3401 15.46 14.0401C16.29 13.1601 16.75 12.0001 16.75 10.8001C16.75 8.18006 14.62 6.06006 12.01 6.06006C9.40002 6.06006 7.27002 8.19006 7.27002 10.8001C7.27002 12.0101 7.73002 13.1601 8.56002 14.0401C8.84002 14.3401 8.83002 14.8201 8.53002 15.1001C8.23002 15.3901 7.75002 15.3701 7.47002 15.0701C6.38002 13.9101 5.77002 12.3901 5.77002 10.8001C5.77002 7.36006 8.57002 4.56006 12.01 4.56006C15.45 4.56006 18.25 7.36006 18.25 10.8001C18.25 12.3901 17.65 13.9101 16.55 15.0701C16.4 15.2201 16.2 15.3001 16 15.3001Z" fill="white"/>
<path d="M10.2999 16.66L8.85988 18.45C7.71988 19.88 8.73989 22 10.5599 22H13.4299C15.2599 22 16.2799 19.88 15.1299 18.46L13.6899 16.67C12.8299 15.57 11.1699 15.57 10.2999 16.66Z" fill="white"/>
</svg>
