<svg width="24" height="24" viewBox="0 0 24 24" fill="none" xmlns="http://www.w3.org/2000/svg">
<path d="M21.53 15.93C21.37 15.66 20.92 15.24 19.8 15.44C19.18 15.55 18.55 15.6 17.92 15.57C15.59 15.47 13.48 14.4 12.01 12.75C10.71 11.3 9.90995 9.40999 9.89995 7.36999C9.89995 6.22999 10.12 5.12999 10.57 4.08999C11.01 3.07999 10.7 2.54999 10.48 2.32999C10.25 2.09999 9.70995 1.77999 8.64995 2.21999C4.55995 3.93999 2.02995 8.03999 2.32995 12.43C2.62995 16.56 5.52995 20.09 9.36995 21.42C10.29 21.74 11.26 21.93 12.26 21.97C12.42 21.98 12.58 21.99 12.74 21.99C16.09 21.99 19.23 20.41 21.21 17.72C21.88 16.79 21.7 16.2 21.53 15.93Z" fill="#3F3F3F"/>
</svg>
