<svg width="24" height="24" viewBox="0 0 24 24" fill="none" xmlns="http://www.w3.org/2000/svg">
<path d="M15.0001 1.62H9.00012C5.81012 1.62 4.62012 2.81 4.62012 6V18C4.62012 21.19 5.81012 22.38 9.00012 22.38H15.0001C18.1901 22.38 19.3801 21.19 19.3801 18V6C19.3801 2.81 18.1901 1.62 15.0001 1.62ZM12.0001 6C12.8301 6 13.5001 6.67 13.5001 7.5C13.5001 8.33 12.8301 9 12.0001 9C11.1701 9 10.5001 8.33 10.5001 7.5C10.5001 6.67 11.1701 6 12.0001 6ZM12.0001 18C10.3401 18 9.00012 16.66 9.00012 15C9.00012 13.34 10.3401 12 12.0001 12C13.6601 12 15.0001 13.34 15.0001 15C15.0001 16.66 13.6601 18 12.0001 18Z" fill="white"/>
</svg>
