<svg width="24" height="24" viewBox="0 0 24 24" fill="none" xmlns="http://www.w3.org/2000/svg">
<path d="M10 3.75H11.25V8.5C11.25 8.91 11.59 9.25 12 9.25C12.41 9.25 12.75 8.91 12.75 8.5V3.75H14C14.41 3.75 14.75 3.41 14.75 3C14.75 2.59 14.41 2.25 14 2.25H10C9.59 2.25 9.25 2.59 9.25 3C9.25 3.41 9.59 3.75 10 3.75Z" fill="#3F3F3F"/>
<path d="M14 20.25H12.75V15.5C12.75 15.09 12.41 14.75 12 14.75C11.59 14.75 11.25 15.09 11.25 15.5V20.25H10C9.59 20.25 9.25 20.59 9.25 21C9.25 21.41 9.59 21.75 10 21.75H14C14.41 21.75 14.75 21.41 14.75 21C14.75 20.59 14.41 20.25 14 20.25Z" fill="#3F3F3F"/>
<path d="M2.83012 9.88006C2.95012 9.95006 3.08012 9.98006 3.20012 9.98006C3.46012 9.98006 3.71012 9.85006 3.85012 9.60006L4.48012 8.52006L8.60012 10.9001C8.71012 10.9701 8.84012 11.0001 8.97012 11.0001C9.23012 11.0001 9.48012 10.8701 9.62012 10.6201C9.83012 10.2701 9.70012 9.81006 9.35012 9.60006L5.23012 7.22006L5.85012 6.14006C6.06012 5.78006 5.93012 5.32006 5.58012 5.12006C5.22012 4.91006 4.76012 5.03006 4.56012 5.39006L2.56012 8.85006C2.35012 9.22006 2.47012 9.67006 2.83012 9.88006Z" fill="#3F3F3F"/>
<path d="M21.1699 14.12C20.8099 13.91 20.3499 14.03 20.1499 14.39L19.5199 15.47L15.3999 13.1C15.0399 12.89 14.5799 13.02 14.3799 13.37C14.1699 13.73 14.2999 14.19 14.6499 14.39L18.7599 16.77L18.1399 17.85C17.9299 18.21 18.0599 18.67 18.4099 18.87C18.5299 18.94 18.6599 18.97 18.7799 18.97C19.0399 18.97 19.2899 18.84 19.4299 18.59L21.4299 15.13C21.6499 14.78 21.5299 14.33 21.1699 14.12Z" fill="#3F3F3F"/>
<path d="M18.7699 7.21994L14.6499 9.59995C14.2899 9.80995 14.1699 10.2699 14.3799 10.6199C14.5199 10.8599 14.7699 10.9999 15.0299 10.9999C15.1599 10.9999 15.2899 10.9699 15.3999 10.8999L19.5099 8.51994L20.1399 9.59995C20.2799 9.83994 20.5299 9.97994 20.7899 9.97994C20.9199 9.97994 21.0499 9.94994 21.1599 9.87994C21.5199 9.66994 21.6399 9.20994 21.4299 8.85994L19.4299 5.39994C19.2199 5.03994 18.7599 4.91994 18.4099 5.12994C18.0499 5.33994 17.9299 5.79994 18.1399 6.14994L18.7699 7.21994Z" fill="#3F3F3F"/>
<path d="M5.23012 16.78L9.34012 14.4C9.70012 14.19 9.82012 13.73 9.61012 13.38C9.40012 13.02 8.94012 12.9 8.59012 13.11L4.48012 15.49L3.85012 14.41C3.64012 14.05 3.18012 13.93 2.83012 14.14C2.47012 14.35 2.35012 14.81 2.56012 15.16L4.56012 18.62C4.70012 18.86 4.95012 19 5.21012 19C5.34012 19 5.47012 18.97 5.58012 18.9C5.94012 18.69 6.06012 18.23 5.85012 17.88L5.23012 16.78Z" fill="#3F3F3F"/>
<path d="M15.5 12C15.5 12.64 15.33 13.23 15.03 13.75C14.42 14.8 13.29 15.5 12 15.5C10.71 15.5 9.58 14.8 8.97 13.75C8.67 13.23 8.5 12.64 8.5 12C8.5 11.36 8.67 10.77 8.97 10.25C9.58 9.2 10.71 8.5 12 8.5C13.29 8.5 14.42 9.2 15.03 10.25C15.33 10.77 15.5 11.36 15.5 12Z" fill="#3F3F3F"/>
</svg>
