<svg width="128" height="132" viewBox="0 0 128 132" fill="none" xmlns="http://www.w3.org/2000/svg">
<g filter="url(#filter0_dd_34_1)">
<path d="M71 85L83 109" stroke="#282828" stroke-width="5"/>
<path d="M42 102H82" stroke="#282828" stroke-width="5" stroke-linecap="round" stroke-linejoin="round"/>
<path d="M38.5 117.5L55 85" stroke="#282828" stroke-width="5" stroke-linecap="round" stroke-linejoin="round"/>
<path d="M62.4946 60C70.6199 52.9888 67.4694 43.6404 64.2358 36.6292C61.5274 30.397 59.5927 15.9461 68.8788 8C67.718 18.5169 75.448 20.8539 78.1649 32.5393C82.376 50.6517 69.6526 58.2472 62.4946 60Z" fill="url(#paint0_linear_34_1)"/>
<path d="M48.3782 67C54.5917 61.7416 52.1825 54.7303 49.7098 49.4719C47.6386 44.7978 46.1591 33.9596 53.2603 28C52.3726 35.8876 58.2838 37.6404 60.3614 46.4045C63.5817 59.9888 53.852 65.6854 48.3782 67Z" fill="url(#paint1_linear_34_1)"/>
<g filter="url(#filter1_dd_34_1)">
<path d="M64 87C83.8823 87 100 70.8823 100 51L28 51C28 70.8822 44.1177 87 64 87Z" fill="url(#paint2_linear_34_1)"/>
</g>
<path fill-rule="evenodd" clip-rule="evenodd" d="M85 120C88.866 120 92 116.866 92 113C92 109.134 88.866 106 85 106C81.134 106 78 109.134 78 113C78 116.866 81.134 120 85 120ZM85 116C86.6569 116 88 114.657 88 113C88 111.343 86.6569 110 85 110C83.3431 110 82 111.343 82 113C82 114.657 83.3431 116 85 116Z" fill="#282828"/>
</g>
<defs>
<filter id="filter0_dd_34_1" x="-6" y="-4" width="144" height="144" filterUnits="userSpaceOnUse" color-interpolation-filters="sRGB">
<feFlood flood-opacity="0" result="BackgroundImageFix"/>
<feColorMatrix in="SourceAlpha" type="matrix" values="0 0 0 0 0 0 0 0 0 0 0 0 0 0 0 0 0 0 127 0" result="hardAlpha"/>
<feOffset dx="2" dy="4"/>
<feGaussianBlur stdDeviation="4"/>
<feColorMatrix type="matrix" values="0 0 0 0 0 0 0 0 0 0 0 0 0 0 0 0 0 0 0.2 0"/>
<feBlend mode="normal" in2="BackgroundImageFix" result="effect1_dropShadow_34_1"/>
<feColorMatrix in="SourceAlpha" type="matrix" values="0 0 0 0 0 0 0 0 0 0 0 0 0 0 0 0 0 0 127 0" result="hardAlpha"/>
<feOffset dy="2"/>
<feGaussianBlur stdDeviation="2"/>
<feColorMatrix type="matrix" values="0 0 0 0 0 0 0 0 0 0 0 0 0 0 0 0 0 0 0.2 0"/>
<feBlend mode="normal" in2="effect1_dropShadow_34_1" result="effect2_dropShadow_34_1"/>
<feBlend mode="normal" in="SourceGraphic" in2="effect2_dropShadow_34_1" result="shape"/>
</filter>
<filter id="filter1_dd_34_1" x="26" y="50" width="76" height="40" filterUnits="userSpaceOnUse" color-interpolation-filters="sRGB">
<feFlood flood-opacity="0" result="BackgroundImageFix"/>
<feColorMatrix in="SourceAlpha" type="matrix" values="0 0 0 0 0 0 0 0 0 0 0 0 0 0 0 0 0 0 127 0" result="hardAlpha"/>
<feOffset dy="1"/>
<feGaussianBlur stdDeviation="0.5"/>
<feColorMatrix type="matrix" values="0 0 0 0 0 0 0 0 0 0 0 0 0 0 0 0 0 0 0.2 0"/>
<feBlend mode="normal" in2="BackgroundImageFix" result="effect1_dropShadow_34_1"/>
<feColorMatrix in="SourceAlpha" type="matrix" values="0 0 0 0 0 0 0 0 0 0 0 0 0 0 0 0 0 0 127 0" result="hardAlpha"/>
<feOffset dy="1"/>
<feGaussianBlur stdDeviation="1"/>
<feColorMatrix type="matrix" values="0 0 0 0 0 0 0 0 0 0 0 0 0 0 0 0 0 0 0.1 0"/>
<feBlend mode="normal" in2="effect1_dropShadow_34_1" result="effect2_dropShadow_34_1"/>
<feBlend mode="normal" in="SourceGraphic" in2="effect2_dropShadow_34_1" result="shape"/>
</filter>
<linearGradient id="paint0_linear_34_1" x1="70.5" y1="8" x2="70.5" y2="60" gradientUnits="userSpaceOnUse">
<stop stop-color="#FB8F2C"/>
<stop offset="1" stop-color="#FFEA32"/>
</linearGradient>
<linearGradient id="paint1_linear_34_1" x1="54.5" y1="28" x2="54.5" y2="67" gradientUnits="userSpaceOnUse">
<stop stop-color="#FB6A2C"/>
<stop offset="1" stop-color="#FFB932"/>
</linearGradient>
<linearGradient id="paint2_linear_34_1" x1="67.5" y1="87" x2="50.5" y2="51" gradientUnits="userSpaceOnUse">
<stop stop-color="#404040"/>
<stop offset="1" stop-color="#7B7B7B"/>
</linearGradient>
</defs>
</svg>
