<svg width="130" height="132" viewBox="0 0 130 132" fill="none" xmlns="http://www.w3.org/2000/svg">
<g filter="url(#filter0_dd_55_1530)">
<path d="M99 68H93L109 120H115L99 68Z" fill="url(#paint0_linear_55_1530)"/>
<path d="M29 68H35L19 120H13L29 68Z" fill="url(#paint1_linear_55_1530)"/>
<path d="M16 64H112V67C112 67.5523 111.552 68 111 68H17C16.4477 68 16 67.5523 16 67V64Z" fill="url(#paint2_linear_55_1530)"/>
<path d="M8 57C8 56.4477 8.44772 56 9 56H119C119.552 56 120 56.4477 120 57V63C120 63.5523 119.552 64 119 64H9C8.44772 64 8 63.5523 8 63V57Z" fill="url(#paint3_linear_55_1530)"/>
</g>
<defs>
<filter id="filter0_dd_55_1530" x="-6" y="-4" width="144" height="144" filterUnits="userSpaceOnUse" color-interpolation-filters="sRGB">
<feFlood flood-opacity="0" result="BackgroundImageFix"/>
<feColorMatrix in="SourceAlpha" type="matrix" values="0 0 0 0 0 0 0 0 0 0 0 0 0 0 0 0 0 0 127 0" result="hardAlpha"/>
<feOffset dx="2" dy="4"/>
<feGaussianBlur stdDeviation="4"/>
<feColorMatrix type="matrix" values="0 0 0 0 0 0 0 0 0 0 0 0 0 0 0 0 0 0 0.2 0"/>
<feBlend mode="normal" in2="BackgroundImageFix" result="effect1_dropShadow_55_1530"/>
<feColorMatrix in="SourceAlpha" type="matrix" values="0 0 0 0 0 0 0 0 0 0 0 0 0 0 0 0 0 0 127 0" result="hardAlpha"/>
<feOffset dy="2"/>
<feGaussianBlur stdDeviation="2"/>
<feColorMatrix type="matrix" values="0 0 0 0 0 0 0 0 0 0 0 0 0 0 0 0 0 0 0.2 0"/>
<feBlend mode="normal" in2="effect1_dropShadow_55_1530" result="effect2_dropShadow_55_1530"/>
<feBlend mode="normal" in="SourceGraphic" in2="effect2_dropShadow_55_1530" result="shape"/>
</filter>
<linearGradient id="paint0_linear_55_1530" x1="108" y1="68" x2="108" y2="120" gradientUnits="userSpaceOnUse">
<stop stop-color="#602E00"/>
<stop offset="1" stop-color="#A45914"/>
</linearGradient>
<linearGradient id="paint1_linear_55_1530" x1="20" y1="68" x2="20" y2="120" gradientUnits="userSpaceOnUse">
<stop stop-color="#602E00"/>
<stop offset="1" stop-color="#A45914"/>
</linearGradient>
<linearGradient id="paint2_linear_55_1530" x1="56" y1="64" x2="56" y2="68" gradientUnits="userSpaceOnUse">
<stop stop-color="#DD9035"/>
<stop offset="1" stop-color="#B96F2A"/>
</linearGradient>
<linearGradient id="paint3_linear_55_1530" x1="56" y1="56" x2="56" y2="64" gradientUnits="userSpaceOnUse">
<stop stop-color="#DD9035"/>
<stop offset="1" stop-color="#B96F2A"/>
</linearGradient>
</defs>
</svg>
